<?xml version="1.0" standalone="no"?>
<!DOCTYPE svg PUBLIC "-//W3C//DTD SVG 20010904//EN"
 "http://www.w3.org/TR/2001/REC-SVG-20010904/DTD/svg10.dtd">
<svg version="1.0" xmlns="http://www.w3.org/2000/svg"
 width="162.000000pt" height="162.000000pt" viewBox="0 0 162.000000 162.000000"
 preserveAspectRatio="xMidYMid meet">
<metadata>
Created by potrace 1.14, written by Peter Selinger 2001-2017
</metadata>
<g transform="translate(0.000000,162.000000) scale(0.100000,-0.100000)"
fill="#000000" stroke="none">
<path d="M725 1170 c-3 -6 2 -13 12 -16 46 -14 84 -35 89 -49 12 -29 -254
-414 -276 -400 -11 7 -22 62 -26 130 -6 102 35 207 107 278 16 15 27 27 24 27
-8 0 -69 -45 -104 -75 -105 -94 -138 -278 -73 -414 l16 -34 -49 -44 c-49 -42
-59 -46 -122 -46 -18 0 -33 -4 -33 -8 0 -11 64 -59 79 -59 20 0 94 47 125 79
l29 31 44 -41 c25 -22 70 -53 101 -67 48 -23 71 -27 147 -27 77 0 99 4 148 27
50 24 119 68 105 68 -3 0 -19 -7 -36 -16 -120 -59 -294 -25 -405 79 l-47 45
73 114 c41 62 100 157 132 211 32 54 61 100 66 102 11 8 50 -58 215 -365 34
-63 68 -119 76 -124 9 -6 28 -2 52 9 l39 18 -31 26 c-31 27 -47 53 -140 231
-128 246 -161 291 -228 309 -49 14 -101 14 -109 1z"/>
<path d="M791 850 c-34 -54 -79 -122 -101 -151 -40 -53 -49 -79 -29 -79 6 0
54 11 108 25 54 13 124 27 157 30 32 3 63 10 68 15 9 9 -112 247 -130 254 -7
3 -39 -40 -73 -94z"/>
</g>
</svg>
